HIERARCHY
ROOT Hips
{
	OFFSET 0.000000 0.000000 0.000000 
	CHANNELS 6 Xposition Yposition Zposition Yrotation Zrotation Xrotation 
	JOINT Lumbar
	{
		OFFSET 0.000000 0.000000 0.000000 
		CHANNELS 3 Zrotation Xrotation Yrotation
		JOINT Neck
		{
			OFFSET 0.000000 0.445665 0.000000 
			CHANNELS 3 Zrotation Xrotation Yrotation
			End Site
			{
				OFFSET 0.000000 0.227535 0.000000 
			}
		}
		JOINT RightShoulder
		{
			OFFSET 0.019635 0.377685 0.194865 
			CHANNELS 3 Zrotation Xrotation Yrotation
			JOINT RightElbow
			{
				OFFSET 0.000000 -0.243375 0.000000 
				CHANNELS 2 Zrotation Yrotation
				JOINT RightWrist
				{
					OFFSET 0.000000 -0.264825 0.000000 
					CHANNELS 2 Zrotation Xrotation
					End Site
					{
						OFFSET 0.006600 -0.176220 0.000990 
					}
				}
			}
		}
		JOINT LeftShoulder
		{
			OFFSET 0.019635 0.377685 -0.194865 
			CHANNELS 3 Zrotation Xrotation Yrotation
			JOINT LeftElbow
			{
				OFFSET 0.000000 -0.243375 0.000000 
				CHANNELS 2 Zrotation Yrotation
				JOINT LeftWrist
				{
					OFFSET 0.000000 -0.264825 0.000000 
					CHANNELS 2 Zrotation Xrotation
					End Site
					{
						OFFSET 0.006600 -0.176220 -0.000990 
					}
				}
			}
		}
	}
	JOINT RightHip
	{
		OFFSET 0.052140 -0.069960 0.075570 
		CHANNELS 3 Zrotation Xrotation Yrotation
		JOINT RightKnee
		{
			OFFSET 0.000000 -0.402270 0.000000 
			CHANNELS 1 Zrotation
			JOINT RightAnkle
			{
				OFFSET 0.000000 -0.404085 0.000000 
				CHANNELS 3 Zrotation Xrotation Yrotation
				End Site
				{
					OFFSET 0.204105 -0.089430 0.008415 
				}
			}
		}
	}
	JOINT LeftHip
	{
		OFFSET 0.052140 -0.069960 -0.075570 
		CHANNELS 3 Zrotation Xrotation Yrotation
		JOINT LeftKnee
		{
			OFFSET 0.000000 -0.402270 0.000000 
			CHANNELS 1 Zrotation
			JOINT LeftAnkle
			{
				OFFSET 0.000000 -0.404085 0.000000 
				CHANNELS 3 Zrotation Xrotation Yrotation
				End Site
				{
					OFFSET 0.204105 -0.089430 -0.008415 
				}
			}
		}
	}
}
MOTION
Frames: 27
Frame Time: 0.02
0.93811 0.15835 0.23035 81.28906 -35.35168 -14.28778 45.49767 -1.34298 1.13041 -2.88838 0.75892 -2.11994 -10.81631 -23.36024 43.8808 107.65528 94.22615 6.50119 2.08348 -11.78624 22.19155 -44.65891 111.53617 -106.33287 9.63124 -4.34914 52.99488 -0.42611 -5.57965 -33.90512 -7.06138 -1.13856 -2.81785 45.1351 14.26403 -0.2041 -20.87306 -8.92743 2.29086 3.46386
0.92971 0.15713 0.23321 80.39317 -35.27175 -14.34069 45.44447 -1.39115 0.75555 -2.90738 0.64474 -2.11994 -10.9167 -23.14496 43.74473 107.82645 94.35278 6.60275 2.33677 -11.04663 22.90715 -45.39179 111.85404 -106.53282 10.34296 -4.10651 53.60598 -0.69382 -5.09636 -34.24842 -7.11885 -1.11055 -2.80812 45.02233 13.8361 0.01096 -20.75431 -8.82729 2.38551 3.50548
0.92146 0.15604 0.23675 79.48921 -35.25061 -14.40807 45.36972 -1.43452 0.44291 -2.87381 0.50238 -2.11994 -11.01408 -22.85552 43.76777 107.98772 94.37285 6.58335 2.68347 -10.20899 23.75661 -46.28449 112.1981 -106.34897 10.9539 -3.85235 54.27538 -0.94485 -4.75307 -34.46565 -7.18548 -1.07567 -2.79606 44.96579 13.44168 0.21202 -20.48376 -8.74622 2.46211 3.53901
0.91315 0.15489 0.24003 78.58485 -35.20699 -14.47133 45.30189 -1.47915 0.10247 -2.8536 0.37261 -2.11994 -11.10288 -22.60086 43.75298 108.15651 94.44409 6.60338 2.98145 -9.43776 24.53606 -47.10136 112.52817 -106.33289 11.59427 -3.60691 54.9204 -1.19904 -4.3486 -34.72558 -7.24859 -1.0438 -2.78495 44.90484 13.04538 0.47281 -20.3011 -8.65722 2.54132 3.57352
0.90477 0.15375 0.24312 77.6991 -35.14796 -14.52422 45.24533 -1.52693 -0.24245 -2.87588 0.24012 -2.11994 -11.23478 -22.33856 43.59404 108.31472 94.50411 6.68921 3.30605 -8.57284 25.35644 -47.93541 112.86935 -106.33641 12.30512 -3.34482 55.56223 -1.47299 -3.93152 -35.04503 -7.31003 -1.012 -2.77414 44.75752 12.59242 0.52393 -20.03488 -8.56571 2.64265 3.61865
0.8966 0.15261 0.24677 76.77246 -35.13383 -14.6022 45.16104 -1.56727 -0.56111 -2.79933 0.10788 -2.11994 -11.27634 -22.07676 43.76835 108.4907 94.56146 6.61121 3.59644 -7.87857 26.1233 -48.7692 113.19232 -106.21295 12.84548 -3.1157 56.21994 -1.70056 -3.5771 -35.21056 -7.37619 -0.97895 -2.76238 44.80141 12.26473 0.99388 -19.90622 -8.48409 2.6949 3.6404
0.88887 0.15137 0.25183 75.73124 -35.23153 -14.74487 44.99908 -1.58857 -0.83715 -2.4453 -0.01536 -2.11994 -11.06258 -21.82196 44.87644 108.73197 94.64399 6.08545 3.78037 -7.70177 26.69836 -49.57517 113.46316 -105.81191 12.93025 -2.97715 56.93577 -1.8143 -3.33273 -34.99347 -7.45966 -0.93978 -2.74668 45.37084 12.28523 2.73072 -20.21796 -8.42052 2.60702 3.59473
0.88138 0.15011 0.25743 74.65008 -35.37154 -14.91228 44.81128 -1.60267 -1.08589 -1.99696 -0.13708 -2.11994 -10.75925 -21.57282 46.30484 108.98904 94.72583 5.4033 3.9247 -7.69671 27.2155 -50.37237 113.7133 -105.30161 12.84844 -2.87312 57.65914 -1.87995 -3.15138 -34.62538 -7.54624 -0.90051 -2.7305 46.12822 12.429 4.86947 -20.66991 -8.36691 2.47205 3.52668
0.87385 0.14888 0.26277 73.58865 -35.49051 -15.06934 44.63944 -1.61992 -1.33754 -1.60321 -0.25988 -2.11994 -10.50069 -21.32958 47.55298 109.22937 94.80442 4.80878 4.08018 -7.59857 27.76754 -51.16582 113.97009 -104.8554 12.84866 -2.75558 58.36072 -1.96096 -2.96061 -34.31766 -7.62709 -0.864 -2.7157 46.79208 12.50948 6.75239 -21.04311 -8.31162 2.36479 3.47214
0.86603 0.14758 0.26819 72.51811 -35.61963 -15.22401 44.44867 -1.63728 -1.6277 -1.15794 -0.38216 -2.11994 -10.22383 -21.04799 48.95415 109.50862 94.89641 4.14022 4.26792 -7.55926 28.2927 -51.99908 114.24087 -104.33291 12.81839 -2.62806 59.1446 -2.06902 -2.6957 -34.03507 -7.72662 -0.81535 -2.69568 47.49284 12.62127 8.94099 -21.47416 -8.24511 2.23068 3.40344
0.85888 0.14643 0.27355 71.4599 -35.73638 -15.38825 44.29192 -1.65303 -1.83126 -0.79849 -0.50472 -2.11994 -9.96517 -20.84858 50.10925 109.71206 94.95908 3.59028 4.37771 -7.44092 28.85254 -52.74332 114.47548 -103.95063 12.81378 -2.53012 59.75473 -2.10929 -2.59569 -33.67255 -7.78769 -0.7926 -2.68672 48.15979 12.69738 10.59212 -21.82029 -8.20393 2.141 3.35873
0.85342 0.1457 0.2786 70.4225 -35.81266 -15.58198 44.23181 -1.6638 -1.80868 -0.69707 -0.62847 -2.11994 -9.76725 -20.87579 50.5173 109.69032 94.96504 3.4069 4.28296 -7.05112 29.57101 -53.25917 114.63032 -103.9638 12.91707 -2.50158 59.91105 -1.97646 -2.9586 -33.07076 -7.74339 -0.83649 -2.70626 48.69466 12.63887 10.62838 -21.89628 -8.23144 2.1903 3.38864
0.84864 0.14513 0.28356 69.40348 -35.87404 -15.78267 44.20768 -1.67358 -1.69905 -0.68565 -0.75237 -2.11994 -9.59272 -20.98595 50.66402 109.59403 94.93826 3.34881 4.11077 -6.57882 30.31646 -53.68181 114.74656 -104.12636 13.05277 -2.50229 59.88656 -1.77692 -3.48068 -32.40504 -7.66002 -0.90726 -2.73732 49.18756 12.54113 10.11542 -21.8831 -8.28382 2.28516 3.44301
0.8436 0.14448 0.28855 68.39081 -35.93921 -15.97415 44.16947 -1.68545 -1.62542 -0.63496 -0.87603 -2.11994 -9.41517 -21.0575 50.92227 109.53977 94.91035 3.2334 3.97248 -6.15169 31.01713 -54.13662 114.87044 -104.23567 13.17698 -2.49233 59.92658 -1.60626 -3.91361 -31.80529 -7.59333 -0.96912 -2.76461 49.69443 12.46513 9.87588 -21.91231 -8.32387 2.35606 3.48431
0.83833 0.14385 0.29358 67.31355 -36.01823 -16.19214 44.12049 -1.69046 -1.56572 -0.57515 -1.00043 -2.11994 -9.203 -21.13201 51.2216 109.45161 94.94707 3.11382 3.83705 -5.69659 31.85377 -54.63529 115.0353 -104.28269 13.28306 -2.47292 60.04227 -1.43922 -4.41821 -31.04319 -7.53092 -1.01753 -2.78593 50.22874 12.37708 9.55199 -21.93809 -8.36839 2.43892 3.53295
0.83372 0.14322 0.2985 66.37709 -36.0646 -16.35612 44.10315 -1.70922 -1.45684 -0.5556 -1.12327 -2.11994 -9.06884 -21.22128 51.37003 109.41618 94.84502 3.03502 3.67936 -5.27981 32.41355 -55.01924 115.10605 -104.49189 13.43498 -2.47917 59.95631 -1.25038 -4.8125 -30.60747 -7.45073 -1.09967 -2.82214 50.69438 12.30302 9.26536 -21.94846 -8.40964 2.50848 3.57255
0.83067 0.14258 0.30308 65.81351 -36.02165 -16.37015 44.16205 -1.76976 -1.23175 -0.63748 -1.24216 -2.11994 -9.1518 -21.31976 51.15588 109.54391 94.33711 3.03708 3.46543 -4.97167 32.20982 -55.12093 114.92547 -105.15508 13.72167 -2.55433 59.36586 -1.00979 -4.84643 -31.0761 -7.32728 -1.27397 -2.89901 50.97184 12.27831 9.23794 -21.93362 -8.43338 2.52887 3.58023
0.82826 0.14193 0.30755 65.39324 -35.94676 -16.32923 44.25218 -1.84351 -0.96028 -0.75502 -1.35924 -2.11994 -9.31137 -21.43203 50.79908 109.72708 93.69655 3.07699 3.23441 -4.70692 31.72606 -55.10867 114.652 -105.97087 14.05097 -2.65368 58.57723 -0.75137 -4.76725 -31.87746 -7.188 -1.48011 -2.98997 51.18243 12.2683 9.2611 -21.90622 -8.45341 2.53479 3.57826
0.82561 0.14129 0.31209 64.91514 -35.88797 -16.31285 44.32957 -1.90898 -0.71174 -0.84864 -1.47705 -2.11994 -9.43164 -21.5457 50.51237 109.88558 93.13664 3.101 3.02054 -4.43339 31.36495 -55.14038 114.42143 -106.68698 14.35137 -2.73768 57.87391 -0.50637 -4.74981 -32.53681 -7.05831 -1.66817 -3.07303 51.42839 12.25007 9.2444 -21.88716 -8.47659 2.54846 3.58148
0.82278 0.14066 0.31654 64.4072 -35.82151 -16.29883 44.40176 -1.98418 -0.45377 -0.97773 -1.59585 -2.11994 -9.57224 -21.63103 50.1945 110.04032 92.48897 3.12336 2.76479 -4.11263 31.02148 -55.20003 114.18564 -107.52845 14.69408 -2.83896 57.18411 -0.23615 -4.69193 -33.15926 -6.91696 -1.87294 -3.16307 51.65166 12.23663 9.27905 -21.8551 -8.49428 2.55876 3.58216
0.82047 0.13999 0.32115 63.99477 -35.76422 -16.26642 44.49213 -2.04207 -0.20375 -1.04047 -1.71145 -2.11994 -9.68759 -21.77614 49.91108 110.21569 91.9938 3.15704 2.59265 -3.89944 30.57783 -55.17791 113.94041 -108.15293 14.95709 -2.91232 56.42178 -0.01564 -4.69236 -33.93307 -6.79689 -2.04943 -3.24144 51.90721 12.21771 9.22707 -21.84685 -8.52245 2.57199 3.5855
0.81932 0.13918 0.32615 63.81504 -35.73541 -16.19928 44.62125 -2.05057 -0.00287 -0.90927 -1.8247 -2.11994 -9.72064 -22.09489 49.75823 110.44587 91.9448 3.20816 2.66089 -3.99245 29.89599 -54.93727 113.68105 -108.05051 15.00035 -2.87796 55.5058 0.06804 -4.85451 -35.08761 -6.73748 -2.14603 -3.28708 52.26519 12.17573 8.91466 -21.91952 -8.57842 2.59739 3.59867
0.81868 0.13832 0.33133 63.7257 -35.71804 -16.11487 44.76795 -2.04091 0.19092 -0.71008 -1.93372 -2.11994 -9.72384 -22.4705 49.64631 110.69284 92.05471 3.26966 2.81316 -4.18965 29.1281 -54.62164 113.41747 -107.7367 14.95965 -2.81824 54.52526 0.10028 -5.08319 -36.37325 -6.70053 -2.21197 -3.31995 52.65883 12.12866 8.51737 -22.01438 -8.64543 2.62591 3.6147
0.81784 0.13749 0.33647 63.5922 -35.69833 -16.03681 44.9091 -2.03845 0.39789 -0.54281 -2.0406 -2.11994 -9.73724 -22.81209 49.51639 110.9254 92.09772 3.32872 2.924 -4.32567 28.41968 -54.35553 113.16321 -107.58311 14.95034 -2.78729 53.57599 0.15201 -5.29863 -37.57259 -6.65486 -2.28769 -3.35657 53.03819 12.08701 8.16792 -22.09209 -8.7085 2.65244 3.62921
0.81687 0.13664 0.34139 63.47651 -35.66473 -15.96375 45.04172 -2.0408 0.56448 -0.37221 -2.16429 -2.11994 -9.76976 -23.18952 49.37815 111.18971 92.11641 3.37939 3.04833 -4.5186 27.61706 -54.02408 112.87489 -107.17999 14.97159 -2.68799 52.61019 0.21897 -5.43962 -38.90387 -6.60257 -2.38143 -3.40206 53.4066 12.03294 7.78215 -22.20073 -8.76652 2.68095 3.64434
0.8163 0.13583 0.34685 63.34357 -35.66407 -15.87616 45.19505 -2.02878 0.81292 -0.19232 -2.25233 -2.11994 -9.75157 -23.50464 49.26967 111.38959 92.22174 3.44974 3.16416 -4.62087 26.99192 -53.80755 112.65718 -107.22449 14.90808 -2.72021 51.66778 0.24408 -5.75151 -39.97766 -6.56932 -2.43073 -3.42622 53.80774 12.0031 7.44955 -22.24839 -8.83819 2.70621 3.65897
0.81664 0.13518 0.35363 63.13821 -35.74441 -15.75977 45.40758 -1.98007 1.28803 0.00064 -2.24026 -2.11994 -9.62421 -23.64203 49.22729 111.42104 92.55978 3.5703 3.24094 -4.41505 26.89622 -53.96962 112.64086 -108.72994 14.63695 -3.16068 50.79357 0.14618 -6.5317 -40.38855 -6.58601 -2.35787 -3.39129 54.28609 12.04398 7.30061 -22.1388 -8.94105 2.72204 3.6715
